<svg id="Camada_2" data-name="Camada 2" xmlns="http://www.w3.org/2000/svg" xmlns:xlink="http://www.w3.org/1999/xlink" viewBox="0 0 1280 1024"><defs><style>.cls-1{fill:url(#Gradiente_sem_nome_16);}.cls-2,.cls-4{fill:#fff;stroke:#fff;stroke-miterlimit:10;}.cls-2{stroke-width:18.46px;}.cls-3{fill:#27a266;}.cls-4{stroke-width:2.75px;}</style><linearGradient id="Gradiente_sem_nome_16" x1="3.86" y1="514.86" x2="1279.29" y2="514.86" gradientUnits="userSpaceOnUse"><stop offset="0" stop-color="#1f995e"/><stop offset="0.92" stop-color="#1e8453"/></linearGradient></defs><title>Prancheta 1</title><g id="Camada_3" data-name="Camada 3"><rect class="cls-1" x="3.86" y="1.86" width="1275.43" height="1026"/></g><path class="cls-2" d="M916.05,379.24a219.74,219.74,0,0,1-23.57,67.69L725,757,658,884.68l-156.22-300L425.54,442a216.62,216.62,0,0,1-21.92-61.27A205.14,205.14,0,0,1,400,337.38C402.54,224.48,501.16,77.89,659.45,77.9S915.33,224.37,918.93,337.38A210.83,210.83,0,0,1,916.05,379.24Z"/><circle class="cls-3" cx="660.31" cy="331.34" r="213.79"/><path class="cls-4" d="M577.11,171.67l-47.85,73.72,72.16,36.08,54.12-76.08c-1.84-5-8.28-20.66-25.1-30.58C605.87,160.31,580.18,170.4,577.11,171.67Z"/><path class="cls-4" d="M604.56,161.47l42.35-1.57c21.9-.8-5.57.22,33.73-.78a197,197,0,0,1,26.66.78c11.73,1.2,17.13,2.92,22,6.28a33.1,33.1,0,0,1,9.42,10.19l18,25.89L781,192.06,747.3,262.65l-85.49-7.84,24.32-14.12-20.4-38.43a75.35,75.35,0,0,0-61.17-40.79Z"/><path class="cls-4" d="M829.66,324.61,792,258.73l-70.59,39.21q28.23,41.58,56.47,83.14A69.61,69.61,0,0,0,832,349.71a20.42,20.42,0,0,0,3.14-14.9A19.89,19.89,0,0,0,829.66,324.61Z"/><path class="cls-4" d="M832.79,359.12A104.84,104.84,0,0,1,814,374.81c-5.52,3.59-10.62,5.46-15.56,7.32a49.66,49.66,0,0,1-8.49,2.09c-28.07,2.72-48.29,2.52-73.21,2.35l.79-24.31-40.79,59.61,40.79,65.88q.78-13.33,1.57-26.67h44.7a47.63,47.63,0,0,0,16.47-10.19,51.75,51.75,0,0,0,9.42-12.55c4-7,7.74-16.81,11.76-24.32l0-.08c.24-.43,1-1.78,15.65-27.37Z"/><path class="cls-4" d="M493.51,362.4c-.11-.14-.33,0-.24.15q11.12,19.67,22.19,40.9,12.74,24.45,23.72,47.81v0a20.54,20.54,0,0,0,5.81,9.19,20.32,20.32,0,0,0,13.88,4.9l89.29,2a.15.15,0,0,0,.15-.14q1.55-40.1,3.08-80.18a.14.14,0,0,0-.14-.15c-41.4-1.62-83-4.28-124.4-5.89h0c-5.14-1.57-9.78-1.72-16.21-5A51.94,51.94,0,0,1,493.51,362.4Z"/><path class="cls-4" d="M505.73,297.94A45.22,45.22,0,0,0,488,337.68a39.67,39.67,0,0,0,13.59,26.67,72.38,72.38,0,0,0,12.55,6.27,73.24,73.24,0,0,0,16.21,4.19q9.16.39,18.82.52,7.3.09,14.33,0a.49.49,0,0,0,.42-.74l-3.21-5.69a15.66,15.66,0,0,1-.91-13.58,38,38,0,0,1,3.49-6.67,38.78,38.78,0,0,1,15.69-13.59l21.43,12.55L562.2,282.78l-81.57,1.05Z"/></svg>